<svg width="220" height="175" viewBox="0 0 220 175" fill="none" xmlns="http://www.w3.org/2000/svg">
<path d="M176.719 51.8928H176.67L148.857 64.258L110.804 81.1763C110.655 81.2414 110.495 81.2754 110.334 81.2762C110.173 81.2771 110.013 81.2449 109.864 81.1813L70.6034 64.2227L42.1073 51.913L42.0637 51.8928H42.0153C41.5656 51.8933 41.1345 52.0795 40.8166 52.4106C40.4987 52.7416 40.3198 53.1904 40.3193 53.6586V130.342C40.3198 130.81 40.4987 131.259 40.8166 131.59C41.1345 131.921 41.5656 132.107 42.0153 132.108H176.719C177.168 132.107 177.599 131.921 177.917 131.59C178.235 131.259 178.414 130.81 178.415 130.342V53.6586C178.414 53.1904 178.235 52.7416 177.917 52.4106C177.599 52.0795 177.168 51.8933 176.719 51.8928Z" fill="white"/>
<path d="M176.84 52.3971C176.79 52.3971 176.742 52.3813 176.701 52.3519L109.699 3.7682C109.495 3.62104 109.253 3.54239 109.004 3.54283C108.756 3.54327 108.514 3.62278 108.311 3.77066L41.7909 52.3514C41.7383 52.3895 41.6733 52.4044 41.6101 52.3927C41.547 52.3811 41.4909 52.3438 41.4541 52.2892C41.4173 52.2345 41.4028 52.1669 41.4137 52.1011C41.4247 52.0354 41.4602 51.9768 41.5126 51.9383L108.033 3.35758C108.317 3.15057 108.656 3.03929 109.004 3.0387C109.351 3.0381 109.69 3.14822 109.976 3.35425L176.978 51.9378C177.021 51.9685 177.052 52.0125 177.069 52.0633C177.086 52.1142 177.086 52.1692 177.071 52.2204C177.055 52.2717 177.025 52.3164 176.983 52.3482C176.941 52.38 176.891 52.3971 176.84 52.3971H176.84Z" fill="#E8E8E8"/>
<path d="M45.5919 54.1197L109.07 5.13721L173.03 57.6048L112.341 95.0636L79.3917 87.2442L45.5919 54.1197Z" fill="#F2F2F2"/>
<path d="M82.1732 118.2H50.8133C50.4248 118.201 50.0519 118.041 49.7767 117.755C49.5016 117.47 49.3466 117.082 49.3461 116.677C49.3455 116.273 49.4993 115.885 49.7737 115.598C50.048 115.312 50.4205 115.15 50.809 115.15H82.1732C82.5618 115.149 82.9347 115.309 83.2099 115.595C83.485 115.88 83.6399 116.268 83.6405 116.673C83.6411 117.077 83.4873 117.466 83.2129 117.752C82.9386 118.039 82.5661 118.2 82.1775 118.2H82.1732Z" fill="#FFDCD1"/>
<path d="M62.0645 111.642H50.8133C50.4249 111.642 50.0523 111.482 49.7773 111.196C49.5024 110.911 49.3476 110.523 49.347 110.119C49.3465 109.714 49.5001 109.326 49.7743 109.04C50.0484 108.753 50.4206 108.592 50.809 108.591H62.0645C62.257 108.591 62.4477 108.63 62.6257 108.706C62.8037 108.782 62.9655 108.894 63.1018 109.036C63.2382 109.177 63.3464 109.345 63.4204 109.53C63.4943 109.715 63.5326 109.914 63.5328 110.114C63.5331 110.315 63.4955 110.513 63.422 110.698C63.3486 110.884 63.2408 111.052 63.1049 111.194C62.9689 111.336 62.8075 111.449 62.6297 111.525C62.4519 111.602 62.2614 111.642 62.0689 111.642H62.0645Z" fill="#FFDCD1"/>
<path d="M109.963 81.402C109.725 81.4022 109.488 81.3541 109.268 81.2602L70.1188 64.3472V11.4068C70.1193 10.9387 70.2981 10.4899 70.6161 10.1589C70.934 9.82787 71.3651 9.64166 71.8147 9.64111H146.919C147.369 9.64166 147.8 9.82787 148.118 10.1589C148.436 10.4899 148.615 10.9387 148.615 11.4068V64.3842L148.542 64.417L110.679 81.2519C110.452 81.3512 110.209 81.4022 109.963 81.402Z" fill="white"/>
<path d="M109.963 81.5277C109.709 81.528 109.457 81.4767 109.222 81.3767L69.9977 64.4312V11.4066C69.9982 10.9051 70.1898 10.4242 70.5305 10.0695C70.8711 9.71484 71.333 9.51534 71.8147 9.51477H146.919C147.401 9.51534 147.863 9.71484 148.203 10.0695C148.544 10.4242 148.736 10.905 148.736 11.4066V64.4672L110.727 81.3676C110.485 81.4735 110.225 81.528 109.963 81.5277ZM70.4822 64.0943L109.406 80.9103C109.77 81.0637 110.176 81.0611 110.537 80.9033L148.252 64.1342V11.4066C148.251 11.0388 148.111 10.6862 147.861 10.4261C147.611 10.166 147.272 10.0197 146.919 10.0193H71.8147C71.4615 10.0197 71.1228 10.166 70.873 10.4261C70.6232 10.6862 70.4827 11.0388 70.4822 11.4066L70.4822 64.0943Z" fill="#E8E8E8"/>
<path d="M176.355 51.8928H176.307L148.494 64.258L110.44 81.1763C110.292 81.2414 110.132 81.2754 109.971 81.2762C109.809 81.2771 109.649 81.2449 109.5 81.1813L70.2399 64.2227L41.7438 51.913L41.7002 51.8928H41.6517C41.2021 51.8933 40.771 52.0795 40.4531 52.4106C40.1352 52.7416 39.9563 53.1904 39.9558 53.6586V130.342C39.9563 130.81 40.1352 131.259 40.4531 131.59C40.771 131.921 41.2021 132.107 41.6517 132.108H176.355C176.805 132.107 177.236 131.921 177.554 131.59C177.872 131.259 178.051 130.81 178.051 130.342V53.6586C178.051 53.1904 177.872 52.7416 177.554 52.4106C177.236 52.0795 176.805 51.8933 176.355 51.8928ZM177.567 130.342C177.567 130.676 177.439 130.997 177.212 131.234C176.985 131.47 176.677 131.603 176.355 131.603H41.6517C41.3305 131.603 41.0224 131.47 40.7953 131.234C40.5681 130.997 40.4405 130.676 40.4404 130.342V53.6586C40.4408 53.3324 40.5623 53.019 40.7795 52.784C40.9966 52.5489 41.2927 52.4104 41.6057 52.3973L70.2399 64.7676L109.314 81.648C109.737 81.8272 110.211 81.8244 110.632 81.6404L148.494 64.8054L176.404 52.3973C176.716 52.4114 177.012 52.5503 177.228 52.7852C177.445 53.0201 177.566 53.3329 177.567 53.6586V130.342Z" fill="#E8E8E8"/>
<path d="M103.868 29.4305H77.2182C76.7046 29.4298 76.2123 29.2168 75.8494 28.8385C75.4866 28.4601 75.2827 27.9472 75.2827 27.4125C75.2827 26.8777 75.4866 26.3649 75.8494 25.9865C76.2123 25.6081 76.7046 25.3952 77.2182 25.3944H103.868C104.382 25.3952 104.874 25.6081 105.237 25.9865C105.6 26.3649 105.804 26.8777 105.804 27.4125C105.804 27.9472 105.6 28.4601 105.237 28.8385C104.874 29.2168 104.382 29.4298 103.868 29.4305Z" fill="#FFDCD1"/>
<path d="M90.0585 20.854H77.2181C76.704 20.854 76.2111 20.6414 75.8476 20.2629C75.4841 19.8845 75.2799 19.3712 75.2799 18.836C75.2799 18.3008 75.4841 17.7875 75.8476 17.409C76.2111 17.0306 76.704 16.818 77.2181 16.818H90.0585C90.5725 16.818 91.0655 17.0306 91.429 17.409C91.7925 17.7875 91.9967 18.3008 91.9967 18.836C91.9967 19.3712 91.7925 19.8845 91.429 20.2629C91.0655 20.6414 90.5725 20.854 90.0585 20.854Z" fill="#FFDCD1"/>
<path d="M129.299 49.6104H88.5973C88.0837 49.6096 87.5915 49.3966 87.2286 49.0183C86.8657 48.6399 86.6619 48.127 86.6619 47.5923C86.6619 47.0576 86.8657 46.5447 87.2286 46.1663C87.5915 45.7879 88.0837 45.575 88.5973 45.5742H129.299C129.813 45.575 130.305 45.7879 130.668 46.1663C131.031 46.5447 131.234 47.0576 131.234 47.5923C131.234 48.127 131.031 48.6399 130.668 49.0183C130.305 49.3966 129.813 49.6096 129.299 49.6104Z" fill="#CCCCCC"/>
<path d="M129.299 58.9435H88.5973C88.0833 58.9435 87.5903 58.7309 87.2269 58.3524C86.8634 57.9739 86.6592 57.4606 86.6592 56.9254C86.6592 56.3901 86.8634 55.8768 87.2269 55.4983C87.5903 55.1199 88.0833 54.9072 88.5973 54.9072H129.299C129.813 54.9072 130.306 55.1199 130.67 55.4983C131.033 55.8768 131.237 56.3901 131.237 56.9254C131.237 57.4606 131.033 57.9739 130.67 58.3524C130.306 58.7309 129.813 58.9435 129.299 58.9435Z" fill="#CCCCCC"/>
<path d="M175.604 71.8124C185.782 71.8124 194.034 63.2215 194.034 52.624C194.034 42.0266 185.782 33.4357 175.604 33.4357C165.426 33.4357 157.175 42.0266 157.175 52.624C157.175 63.2215 165.426 71.8124 175.604 71.8124Z" fill="#FFDCD1"/>
<path d="M173.848 60.7241L168.332 53.3394L171.54 50.7418L174.151 54.2383L182.975 44.5406L185.925 47.451L173.848 60.7241Z" fill="white"/>
<path d="M4.2234 19.1661C4.09761 19.0887 3.9534 19.0498 3.80731 19.0537C3.66123 19.0577 3.51917 19.1045 3.39743 19.1887C3.2757 19.2728 3.17921 19.391 3.11902 19.5297C3.05883 19.6683 3.03739 19.8218 3.05714 19.9726L3.65775 24.5592C3.66601 24.6268 3.66158 24.6955 3.64469 24.7613C3.62585 24.8262 3.59443 24.8863 3.55236 24.938L0.188394 29.0873C0.0760137 29.2208 0.0100302 29.3899 0.00105406 29.5672C-0.00792212 29.7445 0.0406354 29.9198 0.138908 30.0649L0.142434 30.0702C0.236575 30.2169 0.375142 30.3266 0.536074 30.3818C0.697006 30.437 0.871046 30.4345 1.03049 30.3748L3.45987 29.5163C3.54041 29.4886 3.62667 29.4842 3.70942 29.5035C3.79218 29.5229 3.86832 29.5654 3.92969 29.6264C3.97546 29.6705 4.01197 29.724 4.03691 29.7836C4.06184 29.8432 4.07466 29.9074 4.07457 29.9724L4.16953 38.9846C4.17051 39.1151 4.202 39.2433 4.26125 39.3583C4.32051 39.4732 4.40575 39.5714 4.50962 39.6444C4.61311 39.7172 4.73188 39.7631 4.85595 39.7781C4.98001 39.7932 5.10574 39.777 5.22253 39.7309L23.3548 32.5108C23.4915 32.4567 23.6108 32.3634 23.6989 32.2418C23.787 32.1202 23.8403 31.9752 23.8528 31.8235C23.8652 31.6717 23.8363 31.5194 23.7693 31.384C23.7023 31.2486 23.5999 31.1356 23.474 31.0581L23.2272 30.9054L4.2234 19.1661V19.1661ZM3.36411 19.9285C3.35244 19.838 3.3655 19.7459 3.40178 19.6627C3.43806 19.5795 3.4961 19.5087 3.56925 19.4583C3.64241 19.4079 3.72771 19.3799 3.81541 19.3776C3.90311 19.3754 3.98965 19.3988 4.06513 19.4454L23.0628 31.1812L23.3157 31.3373C23.3908 31.3841 23.4519 31.4519 23.4918 31.533C23.5317 31.6141 23.5489 31.7052 23.5415 31.796C23.5341 31.8869 23.5024 31.9737 23.4499 32.0466C23.3974 32.1196 23.3263 32.1757 23.2447 32.2086L5.11243 39.4286C5.0423 39.4564 4.96677 39.4661 4.89225 39.457C4.81774 39.4479 4.74644 39.4201 4.68441 39.3762C4.62239 39.3322 4.57146 39.2733 4.53598 39.2045C4.5005 39.1357 4.4815 39.0589 4.4806 38.9808L4.38567 29.9687C4.38572 29.8795 4.37102 29.791 4.34218 29.707L22.8025 31.9154C22.8745 31.9248 22.9473 31.9077 23.0085 31.867C23.0696 31.8264 23.1152 31.7647 23.1373 31.6928C23.1595 31.6209 23.1568 31.5432 23.1297 31.4731C23.1026 31.403 23.0529 31.345 22.9891 31.3091C22.9736 31.3001 22.9573 31.2927 22.9404 31.287L3.97028 24.6941C3.97488 24.6344 3.97301 24.5744 3.96472 24.5151L3.36409 19.9285L3.36411 19.9285Z" fill="#F1F1F1"/>
<path d="M4.2234 19.1661C4.09761 19.0887 3.9534 19.0498 3.80731 19.0537C3.66123 19.0577 3.51917 19.1045 3.39743 19.1887C3.2757 19.2728 3.17921 19.391 3.11902 19.5297C3.05883 19.6683 3.03739 19.8218 3.05714 19.9726L3.65775 24.5592C3.66601 24.6268 3.66158 24.6955 3.64469 24.7613C3.62585 24.8262 3.59443 24.8863 3.55236 24.938L0.188394 29.0873C0.0760137 29.2208 0.0100302 29.3899 0.00105406 29.5672C-0.00792212 29.7445 0.0406354 29.9198 0.138908 30.0649L0.142434 30.0702C0.236575 30.2169 0.375142 30.3266 0.536074 30.3818C0.697006 30.437 0.871046 30.4345 1.03049 30.3748L3.45987 29.5163C3.54041 29.4886 3.62667 29.4842 3.70942 29.5035C3.79218 29.5229 3.86832 29.5654 3.92969 29.6264C3.97546 29.6705 4.01197 29.724 4.03691 29.7836C4.06184 29.8432 4.07466 29.9074 4.07457 29.9724L4.16953 38.9846C4.17051 39.1151 4.202 39.2433 4.26125 39.3583C4.32051 39.4732 4.40575 39.5714 4.50962 39.6444C4.61311 39.7172 4.73188 39.7631 4.85595 39.7781C4.98001 39.7932 5.10574 39.777 5.22253 39.7309L23.3548 32.5108C23.4915 32.4567 23.6108 32.3634 23.6989 32.2418C23.787 32.1202 23.8403 31.9752 23.8528 31.8235C23.8652 31.6717 23.8363 31.5194 23.7693 31.384C23.7023 31.2486 23.5999 31.1356 23.474 31.0581L23.2272 30.9054L4.2234 19.1661V19.1661ZM3.36411 19.9285C3.35244 19.838 3.3655 19.7459 3.40178 19.6627C3.43806 19.5795 3.4961 19.5087 3.56925 19.4583C3.64241 19.4079 3.72771 19.3799 3.81541 19.3776C3.90311 19.3754 3.98965 19.3988 4.06513 19.4454L23.0628 31.1812L23.3157 31.3373C23.3908 31.3841 23.4519 31.4519 23.4918 31.533C23.5317 31.6141 23.5489 31.7052 23.5415 31.796C23.5341 31.8869 23.5024 31.9737 23.4499 32.0466C23.3974 32.1196 23.3263 32.1757 23.2447 32.2086L5.11243 39.4286C5.0423 39.4564 4.96677 39.4661 4.89225 39.457C4.81774 39.4479 4.74643 39.4201 4.68441 39.3762C4.62239 39.3322 4.57147 39.2733 4.53599 39.2045C4.50051 39.1356 4.4815 39.0589 4.4806 38.9808L4.38566 29.9687C4.38571 29.8795 4.371 29.791 4.34217 29.707C4.30154 29.5861 4.23318 29.4773 4.14301 29.3902C4.13075 29.3774 4.11721 29.3655 4.10363 29.3536L4.10277 29.3523C4.00091 29.2647 3.87926 29.2057 3.74935 29.1809C3.61944 29.156 3.48558 29.1662 3.36048 29.2103L0.929844 30.0697C0.834039 30.1059 0.729289 30.1074 0.632599 30.0738C0.535909 30.0403 0.452938 29.9737 0.397139 29.8849L0.39537 29.8822C0.335726 29.7955 0.306202 29.6902 0.311656 29.5837C0.31711 29.4772 0.357222 29.3758 0.425385 29.2961L3.7894 25.1469C3.82536 25.1035 3.85652 25.0559 3.88228 25.0052L3.88356 25.0043C3.90842 24.9558 3.92826 24.9046 3.94272 24.8517C3.95727 24.8003 3.96651 24.7475 3.97029 24.6941C3.97489 24.6344 3.97303 24.5744 3.96473 24.5152L3.36411 19.9285V19.9285Z" fill="#E5E5E5"/>
<path d="M3.97023 24.6939L22.9404 31.2868C22.9572 31.2925 22.9735 31.2999 22.989 31.3089C23.0528 31.3448 23.1025 31.4028 23.1296 31.4729C23.1567 31.543 23.1594 31.6207 23.1373 31.6926C23.1151 31.7646 23.0696 31.8262 23.0084 31.8668C22.9473 31.9075 22.8744 31.9246 22.8024 31.9152L4.3421 29.7068L4.0161 29.6682L4.0522 29.3472L4.1027 29.3521L4.10356 29.3534L22.8376 31.5929L3.8835 25.0041L3.88221 25.0051L3.80029 24.9756L3.89868 24.6687L3.97023 24.6939Z" fill="#E5E5E5"/>
<path d="M215.777 0.127946L196.773 11.8673L196.526 12.02C196.4 12.0975 196.298 12.2105 196.231 12.3459C196.164 12.4813 196.135 12.6336 196.147 12.7853C196.16 12.9371 196.213 13.0821 196.301 13.2037C196.389 13.3253 196.508 13.4185 196.645 13.4727L214.777 20.6928C214.894 20.7389 215.02 20.7551 215.144 20.74C215.268 20.725 215.387 20.6791 215.49 20.6063C215.594 20.5333 215.679 20.4351 215.739 20.3202C215.798 20.2052 215.829 20.077 215.83 19.9465L215.925 10.9343C215.925 10.8693 215.938 10.805 215.963 10.7455C215.988 10.6859 216.025 10.6324 216.07 10.5882C216.132 10.5272 216.208 10.4848 216.291 10.4654C216.373 10.446 216.46 10.4504 216.54 10.4782L218.969 11.3367C219.129 11.3964 219.303 11.3988 219.464 11.3436C219.625 11.2884 219.763 11.1788 219.858 11.0321L219.861 11.0268C219.959 10.8816 220.008 10.7063 219.999 10.529C219.99 10.3517 219.924 10.1827 219.812 10.0491L216.448 5.89982C216.406 5.84814 216.374 5.78802 216.355 5.72318C216.338 5.65731 216.334 5.58866 216.342 5.52103L216.943 0.934364C216.963 0.783607 216.941 0.63011 216.881 0.491462C216.821 0.352814 216.724 0.234631 216.603 0.150456C216.481 0.0662812 216.339 0.0195183 216.193 0.0155362C216.047 0.0115541 215.902 0.0505121 215.777 0.12794V0.127946ZM216.636 0.890314L216.035 5.47696C216.027 5.5362 216.025 5.59623 216.03 5.65591L197.06 12.2489C197.043 12.2545 197.026 12.2619 197.011 12.2709C196.947 12.3068 196.897 12.3649 196.87 12.4349C196.843 12.505 196.841 12.5827 196.863 12.6547C196.885 12.7266 196.93 12.7882 196.992 12.8289C197.053 12.8695 197.126 12.8866 197.198 12.8773L215.658 10.6689C215.629 10.7529 215.614 10.8414 215.614 10.9306L215.519 19.9427C215.519 20.0208 215.5 20.0976 215.464 20.1664C215.429 20.2352 215.378 20.2941 215.316 20.3381C215.254 20.382 215.182 20.4098 215.108 20.4189C215.033 20.428 214.958 20.4183 214.888 20.3905L196.755 13.1704C196.674 13.1375 196.603 13.0814 196.55 13.0085C196.498 12.9355 196.466 12.8487 196.458 12.7579C196.451 12.6671 196.468 12.5759 196.508 12.4948C196.548 12.4137 196.609 12.3459 196.684 12.2992L196.937 12.1431L215.935 0.407175C216.01 0.360628 216.097 0.337153 216.185 0.339434C216.272 0.341714 216.358 0.369661 216.431 0.420074C216.504 0.470487 216.562 0.541326 216.598 0.624485C216.635 0.707644 216.648 0.799763 216.636 0.890289V0.890314Z" fill="#F1F1F1"/>
<path d="M215.777 0.127946L196.773 11.8673L196.526 12.02C196.4 12.0975 196.298 12.2105 196.231 12.3459C196.164 12.4813 196.135 12.6336 196.147 12.7853C196.16 12.9371 196.213 13.0821 196.301 13.2037C196.389 13.3253 196.508 13.4185 196.645 13.4727L214.777 20.6928C214.894 20.7389 215.02 20.7551 215.144 20.74C215.268 20.725 215.387 20.6791 215.49 20.6063C215.594 20.5333 215.679 20.4351 215.739 20.3202C215.798 20.2052 215.829 20.077 215.83 19.9465L215.925 10.9343C215.925 10.8693 215.938 10.805 215.963 10.7455C215.988 10.6859 216.025 10.6324 216.07 10.5882C216.132 10.5272 216.208 10.4848 216.291 10.4654C216.373 10.446 216.46 10.4504 216.54 10.4782L218.969 11.3367C219.129 11.3964 219.303 11.3988 219.464 11.3436C219.625 11.2884 219.763 11.1788 219.858 11.0321L219.861 11.0268C219.959 10.8816 220.008 10.7063 219.999 10.529C219.99 10.3517 219.924 10.1827 219.812 10.0491L216.448 5.89982C216.406 5.84814 216.374 5.78802 216.355 5.72318C216.338 5.65731 216.334 5.58866 216.342 5.52103L216.943 0.934364C216.963 0.783607 216.941 0.63011 216.881 0.491462C216.821 0.352814 216.724 0.234631 216.603 0.150456C216.481 0.0662812 216.339 0.0195183 216.193 0.0155362C216.047 0.0115541 215.902 0.0505121 215.777 0.12794V0.127946ZM216.636 0.890314L216.035 5.47697C216.027 5.53622 216.025 5.59624 216.03 5.65591C216.033 5.70931 216.043 5.76214 216.057 5.81349C216.072 5.86641 216.092 5.91758 216.116 5.96613L216.118 5.96705C216.143 6.01775 216.175 6.06528 216.211 6.10874L219.575 10.258C219.643 10.3376 219.683 10.439 219.688 10.5456C219.694 10.6521 219.664 10.7574 219.605 10.8441L219.603 10.8468C219.547 10.9355 219.464 11.0021 219.367 11.0357C219.271 11.0692 219.166 11.0678 219.07 11.0316L216.64 10.1721C216.514 10.128 216.381 10.1179 216.251 10.1427C216.121 10.1676 215.999 10.2266 215.897 10.3141L215.896 10.3155C215.883 10.3274 215.869 10.3392 215.857 10.352C215.767 10.4392 215.698 10.548 215.658 10.6689C215.629 10.7528 215.614 10.8414 215.614 10.9305L215.519 19.9427C215.518 20.0208 215.499 20.0975 215.464 20.1664C215.429 20.2352 215.378 20.2941 215.316 20.3381C215.254 20.382 215.182 20.4097 215.108 20.4189C215.033 20.428 214.958 20.4183 214.888 20.3905L196.755 13.1704C196.674 13.1375 196.603 13.0814 196.55 13.0085C196.498 12.9355 196.466 12.8487 196.458 12.7579C196.451 12.6671 196.468 12.5759 196.508 12.4948C196.548 12.4137 196.609 12.3459 196.684 12.2992L196.937 12.1431L215.935 0.407181C216.01 0.360634 216.097 0.337159 216.185 0.33944C216.272 0.341721 216.358 0.369667 216.431 0.42008C216.504 0.470493 216.562 0.541332 216.598 0.624491C216.635 0.70765 216.648 0.799769 216.636 0.890295V0.890314Z" fill="#E5E5E5"/>
<path d="M216.101 5.63074L216.2 5.93764L216.118 5.96709L216.117 5.96617L197.162 12.5548L215.896 10.3154L215.897 10.3141L215.948 10.3092L215.984 10.6301L215.658 10.6688L197.197 12.8771C197.125 12.8865 197.053 12.8694 196.991 12.8287C196.93 12.7881 196.885 12.7265 196.863 12.6546C196.84 12.5826 196.843 12.5049 196.87 12.4348C196.897 12.3648 196.947 12.3067 197.011 12.2708C197.026 12.2618 197.043 12.2544 197.06 12.2488L216.03 5.65598L216.101 5.63074Z" fill="#E5E5E5"/>
<path d="M53.1613 164.156C53.0312 164.225 52.9225 164.331 52.8476 164.462C52.7728 164.593 52.7348 164.743 52.7381 164.895C52.7414 165.047 52.7858 165.195 52.8661 165.322C52.9465 165.449 53.0597 165.55 53.1926 165.613L57.237 167.536C57.2963 167.565 57.3497 167.605 57.3942 167.656C57.4367 167.707 57.4687 167.767 57.4882 167.831L59.0588 173.009C59.1072 173.179 59.2091 173.328 59.3483 173.43C59.4874 173.533 59.6557 173.584 59.826 173.575L59.8322 173.575C60.0016 173.57 60.1647 173.507 60.2955 173.395C60.4263 173.283 60.5174 173.128 60.5541 172.956L61.1555 170.359C61.176 170.274 61.2185 170.195 61.2785 170.133C61.3384 170.07 61.4136 170.026 61.4959 170.005C61.5562 169.988 61.6191 169.985 61.6808 169.994C61.7425 170.004 61.8015 170.027 61.8542 170.062L69.221 174.795C69.3275 174.864 69.4484 174.905 69.5734 174.914C69.6984 174.923 69.8237 174.901 69.9384 174.848C70.0528 174.796 70.1535 174.716 70.2321 174.615C70.3106 174.514 70.3646 174.395 70.3896 174.267L74.2187 154.452C74.2478 154.302 74.2359 154.148 74.1842 154.005C74.1326 153.863 74.0434 153.738 73.9268 153.646C73.8103 153.554 73.6712 153.498 73.5255 153.485C73.3798 153.471 73.2334 153.501 73.1031 153.57L72.8473 153.706L53.1613 164.156ZM53.3209 165.32C53.2412 165.282 53.1734 165.221 53.1253 165.144C53.0771 165.068 53.0506 164.979 53.0488 164.888C53.047 164.796 53.0699 164.706 53.1149 164.628C53.1599 164.55 53.2252 164.486 53.3034 164.445L72.9832 153.998L73.2451 153.859C73.3233 153.818 73.4109 153.8 73.498 153.809C73.5852 153.817 73.6684 153.85 73.7382 153.905C73.808 153.96 73.8615 154.035 73.8926 154.12C73.9238 154.205 73.9314 154.298 73.9144 154.387L70.0854 174.203C70.0704 174.279 70.038 174.351 69.9907 174.411C69.9435 174.472 69.8829 174.52 69.814 174.551C69.7452 174.582 69.6702 174.596 69.5953 174.59C69.5205 174.584 69.4481 174.56 69.3842 174.519L62.0174 169.786C61.9451 169.739 61.8654 169.704 61.7818 169.685L73.4401 154.62C73.4862 154.561 73.5113 154.488 73.5109 154.412C73.5106 154.337 73.4849 154.264 73.4384 154.206C73.3918 154.148 73.3273 154.109 73.2559 154.095C73.1846 154.082 73.1109 154.094 73.0476 154.131C73.032 154.14 73.0174 154.151 73.0037 154.162L57.5135 167.333C57.4675 167.297 57.4178 167.267 57.3653 167.242L53.3209 165.32Z" fill="#F1F1F1"/>
<path d="M53.1613 164.156C53.0312 164.225 52.9225 164.331 52.8476 164.462C52.7728 164.593 52.7348 164.743 52.7381 164.895C52.7414 165.047 52.7858 165.195 52.8661 165.322C52.9465 165.449 53.0597 165.55 53.1926 165.613L57.237 167.536C57.2963 167.565 57.3497 167.605 57.3942 167.656C57.4367 167.707 57.4687 167.767 57.4882 167.831L59.0588 173.009C59.1072 173.179 59.2091 173.328 59.3483 173.43C59.4874 173.533 59.6557 173.584 59.826 173.575L59.8322 173.575C60.0016 173.57 60.1647 173.507 60.2955 173.395C60.4263 173.283 60.5174 173.128 60.5541 172.956L61.1555 170.359C61.176 170.274 61.2185 170.195 61.2785 170.133C61.3384 170.07 61.4136 170.026 61.4959 170.005C61.5562 169.988 61.6191 169.985 61.6808 169.994C61.7425 170.004 61.8015 170.027 61.8542 170.062L69.221 174.795C69.3275 174.864 69.4484 174.905 69.5734 174.914C69.6984 174.923 69.8237 174.901 69.9384 174.848C70.0528 174.796 70.1535 174.716 70.2321 174.615C70.3106 174.514 70.3646 174.395 70.3896 174.267L74.2187 154.452C74.2478 154.302 74.2359 154.148 74.1842 154.005C74.1326 153.863 74.0434 153.738 73.9268 153.646C73.8103 153.554 73.6712 153.498 73.5255 153.485C73.3798 153.471 73.2334 153.501 73.1031 153.57L72.8473 153.706L53.1613 164.156ZM53.3209 165.32C53.2412 165.282 53.1734 165.221 53.1253 165.144C53.0771 165.068 53.0506 164.979 53.0488 164.888C53.047 164.796 53.0699 164.706 53.1149 164.628C53.1599 164.55 53.2252 164.486 53.3034 164.445L72.9832 153.998L73.2451 153.859C73.3233 153.818 73.4109 153.8 73.498 153.809C73.5852 153.817 73.6684 153.85 73.7382 153.905C73.808 153.96 73.8615 154.035 73.8926 154.12C73.9238 154.205 73.9314 154.298 73.9144 154.387L70.0854 174.203C70.0704 174.279 70.038 174.351 69.9907 174.411C69.9435 174.472 69.8829 174.52 69.814 174.551C69.7452 174.582 69.6702 174.596 69.5953 174.59C69.5205 174.584 69.4481 174.56 69.3842 174.519L62.0174 169.786C61.9451 169.739 61.8653 169.704 61.7818 169.685C61.6619 169.656 61.5371 169.658 61.4181 169.691C61.4012 169.695 61.3843 169.7 61.3674 169.706L61.3659 169.706C61.2403 169.749 61.1274 169.824 61.0378 169.925C60.9482 170.026 60.8849 170.15 60.8539 170.283L60.2526 172.882C60.2308 172.985 60.176 173.078 60.097 173.145C60.0181 173.213 59.9198 173.25 59.8178 173.252L59.8147 173.252C59.7125 173.258 59.6112 173.228 59.5277 173.166C59.4441 173.104 59.3832 173.015 59.355 172.912L57.7845 167.734C57.7684 167.679 57.7465 167.627 57.7191 167.577L57.719 167.575C57.6929 167.527 57.662 167.483 57.6267 167.442C57.5928 167.401 57.5549 167.365 57.5135 167.333C57.4676 167.297 57.4178 167.267 57.3653 167.242L53.3209 165.32Z" fill="#E5E5E5"/>
<path d="M57.5135 167.333L73.0038 154.162C73.0174 154.151 73.0321 154.14 73.0477 154.131C73.1109 154.094 73.1846 154.082 73.256 154.095C73.3273 154.109 73.3919 154.148 73.4384 154.206C73.485 154.264 73.5107 154.337 73.511 154.412C73.5113 154.488 73.4862 154.561 73.4402 154.62L61.7818 169.685L61.5762 169.951L61.3349 169.748L61.3659 169.706L61.3674 169.706L73.1974 154.416L57.719 167.575L57.7191 167.577L57.6514 167.633L57.4548 167.383L57.5135 167.333Z" fill="#E5E5E5"/>
</svg>
